<?xml version="1.0" encoding="iso-8859-1"?>
<!-- Generator: Adobe Illustrator 16.0.4, SVG Export Plug-In . SVG Version: 6.00 Build 0)  -->
<!DOCTYPE svg PUBLIC "-//W3C//DTD SVG 1.1//EN" "http://www.w3.org/Graphics/SVG/1.1/DTD/svg11.dtd">
<svg version="1.1" xmlns="http://www.w3.org/2000/svg" xmlns:xlink="http://www.w3.org/1999/xlink" x="0px" y="0px" width="600px"
	 height="600px" viewBox="0 0 600 600" style="enable-background:new 0 0 600 600;" xml:space="preserve">
	<g style="display:inline;">
		<g id="left_4_">
			<path style="fill:#ffffff;" d="M211.997,258.045c-23.078,23.072-23.078,60.837,0,83.917l115.726,115.731
				c23.078,23.07,60.845,23.07,83.913,0L527.37,341.962c23.08-23.08,23.08-60.845,0-83.917L411.636,142.313
				c-23.068-23.079-60.835-23.079-83.913,0L211.997,258.045z M473.836,258.045c23.081,23.072,23.081,60.837,0,83.917l-62.2,62.191
				c-23.068,23.075-60.835,23.075-83.913,0l-62.19-62.191c-23.08-23.08-23.08-60.845,0-83.917l62.19-62.198
				c23.078-23.072,60.845-23.072,83.913,0L473.836,258.045z"/>
		</g>
		<g id="right_4_">
			<path style="fill:#ffffff;" d="M72.633,258.045c-23.084,23.072-23.084,60.837,0,83.917l115.726,115.731
				c23.083,23.07,60.843,23.07,83.91,0l115.737-115.731c23.073-23.08,23.073-60.845,0-83.917L272.269,142.313
				c-23.066-23.079-60.827-23.079-83.91,0L72.633,258.045z M334.473,258.045c23.078,23.072,23.078,60.837,0,83.917l-62.205,62.191
				c-23.066,23.075-60.827,23.075-83.91,0l-62.192-62.191c-23.078-23.08-23.078-60.845,0-83.917l62.192-62.198
				c23.083-23.072,60.843-23.072,83.91,0L334.473,258.045z"/>
		</g>
	</g>
</svg>
